<svg width="128" height="128" viewBox="0 0 128 128" fill="none" xmlns="http://www.w3.org/2000/svg">
    <rect width="128" height="128" rx="20" fill="#1F1F1F" />
    <path
        d="M40 32C40 25.3726 45.3726 20 52 20H76C82.6274 20 88 25.3726 88 32V96C88 102.627 82.6274 108 76 108H52C45.3726 108 40 102.627 40 96V32Z"
        fill="#2D2D2D" />
    <path d="M56 48L72 64L56 80" stroke="#00FFA3" stroke-width="8" stroke-linecap="round" stroke-linejoin="round" />
    <circle cx="48" cy="40" r="6" fill="#00FFA3" />
    <circle cx="80" cy="88" r="6" fill="#00FFA3" />
    <path d="M90 38C102 46 104 82 90 90" stroke="#FF00B8" stroke-width="4" stroke-dasharray="4 4" />
    <path d="M38 90C26 82 24 46 38 38" stroke="#FF00B8" stroke-width="4" stroke-dasharray="4 4" />
    <text x="64" y="120" fill="#FFFFFF" font-size="12" font-family="monospace" text-anchor="middle">git pr ai</text>
</svg>